<?xml version="1.0" standalone="no"?>
<!DOCTYPE svg PUBLIC "-//W3C//DTD SVG 20010904//EN"
 "http://www.w3.org/TR/2001/REC-SVG-20010904/DTD/svg10.dtd">
<svg version="1.0" xmlns="http://www.w3.org/2000/svg"
 width="500.000000pt" height="500.000000pt" viewBox="35 0 240.000000 240.000000"
 preserveAspectRatio="xMidYMid meet">

<g transform="translate(0.000000,320.000000) scale(0.100000,-0.100000)"
fill="#000000" stroke="none">
<path d="M1500 2925 c0 -23 -3 -25 -50 -25 -47 0 -50 -2 -50 -25 0 -20 -5 -25
-25 -25 -20 0 -25 -5 -25 -25 0 -20 -5 -25 -25 -25 -20 0 -25 -5 -25 -25 0
-20 -5 -25 -25 -25 -23 0 -25 -3 -25 -50 0 -47 -2 -50 -25 -50 l-25 0 0 -100
0 -100 -25 0 -25 0 0 -125 0 -125 25 0 c24 0 25 -2 25 -75 l0 -75 50 0 50 0 0
-350 0 -350 -25 0 -25 0 0 -150 0 -150 -25 0 c-20 0 -25 -5 -25 -25 0 -20 -5
-25 -25 -25 l-25 0 0 -125 0 -125 175 0 175 0 0 25 c0 20 5 25 25 25 l25 0 0
125 0 125 50 0 50 0 0 -125 0 -125 25 0 c20 0 25 -5 25 -25 l0 -25 175 0 175
0 0 125 0 125 -25 0 c-20 0 -25 5 -25 25 0 20 -5 25 -25 25 l-25 0 0 150 0
150 -25 0 -25 0 0 350 0 350 50 0 50 0 0 75 c0 73 1 75 25 75 l25 0 0 125 0
125 -25 0 -25 0 0 100 0 100 -25 0 c-23 0 -25 3 -25 50 0 47 -2 50 -25 50 -20
0 -25 5 -25 25 0 20 -5 25 -25 25 -20 0 -25 5 -25 25 0 20 -5 25 -25 25 -20 0
-25 5 -25 25 0 23 -3 25 -50 25 -47 0 -50 2 -50 25 l0 25 -100 0 -100 0 0 -25z
m-50 -300 c0 -20 -5 -25 -25 -25 -20 0 -25 5 -25 25 0 20 5 25 25 25 20 0 25
-5 25 -25z m350 0 c0 -20 -5 -25 -25 -25 -20 0 -25 5 -25 25 0 20 5 25 25 25
20 0 25 -5 25 -25z m-100 -50 c0 -20 5 -25 25 -25 l25 0 0 -125 0 -125 -25 0
c-20 0 -25 -5 -25 -25 0 -23 3 -25 50 -25 l50 0 0 50 0 50 50 0 c47 0 50 2 50
25 0 23 3 25 50 25 l50 0 0 -100 0 -100 -25 0 c-23 0 -25 -3 -25 -50 0 -47 -2
-50 -25 -50 -20 0 -25 -5 -25 -25 0 -23 -3 -25 -50 -25 -47 0 -50 -2 -50 -25
0 -23 -3 -25 -50 -25 -47 0 -50 -2 -50 -25 0 -20 -5 -25 -25 -25 l-25 0 0 100
0 100 25 0 c23 0 25 3 25 50 0 47 -2 50 -25 50 -20 0 -25 -5 -25 -25 0 -23 -3
-25 -50 -25 -47 0 -50 2 -50 25 0 20 -5 25 -25 25 -23 0 -25 -3 -25 -50 0 -47
2 -50 25 -50 l25 0 0 -100 0 -100 -25 0 c-20 0 -25 5 -25 25 0 23 -3 25 -50
25 -47 0 -50 2 -50 25 0 23 -3 25 -50 25 -47 0 -50 2 -50 25 0 20 -5 25 -25
25 -23 0 -25 3 -25 50 0 47 -2 50 -25 50 l-25 0 0 100 0 100 50 0 c47 0 50 -2
50 -25 0 -23 3 -25 50 -25 47 0 50 -2 50 -25 0 -20 5 -25 25 -25 l25 0 0 125
0 125 25 0 c20 0 25 5 25 25 l0 25 100 0 100 0 0 -25z m-250 -650 c0 -20 5
-25 25 -25 l25 0 0 -225 0 -225 25 0 c20 0 25 -5 25 -25 0 -23 3 -25 50 -25
47 0 50 2 50 25 0 20 5 25 25 25 l25 0 0 225 0 225 25 0 c20 0 25 5 25 25 0
23 3 25 50 25 l50 0 0 -300 0 -300 25 0 25 0 0 -100 0 -100 -25 0 c-20 0 -25
-5 -25 -25 l0 -25 -250 0 -250 0 0 25 c0 20 -5 25 -25 25 l-25 0 0 100 0 100
25 0 25 0 0 300 0 300 50 0 c47 0 50 -2 50 -25z"/>
<path d="M1550 2525 c0 -20 -5 -25 -25 -25 l-25 0 0 -100 0 -100 -25 0 c-20 0
-25 -5 -25 -25 0 -20 5 -25 25 -25 20 0 25 5 25 25 0 20 5 25 25 25 20 0 25
-5 25 -25 0 -23 3 -25 50 -25 47 0 50 2 50 25 0 20 5 25 25 25 l25 0 0 100 0
100 -25 0 c-20 0 -25 5 -25 25 0 23 -3 25 -50 25 -47 0 -50 -2 -50 -25z m100
-100 c0 -20 -5 -25 -25 -25 -20 0 -25 5 -25 25 0 20 5 25 25 25 20 0 25 -5 25
-25z"/>
<path d="M1400 2100 l0 -50 50 0 50 0 0 50 0 50 -50 0 -50 0 0 -50z"/>
<path d="M1700 2100 l0 -50 50 0 50 0 0 50 0 50 -50 0 -50 0 0 -50z"/>
<path d="M1000 1725 l0 -125 75 0 75 0 0 75 c0 73 1 75 25 75 23 0 25 3 25 50
l0 50 -100 0 -100 0 0 -125z m150 50 c0 -20 -5 -25 -25 -25 -23 0 -25 -3 -25
-50 0 -47 -2 -50 -25 -50 -24 0 -25 2 -25 75 l0 75 50 0 c47 0 50 -2 50 -25z"/>
<path d="M2000 1800 c0 -47 2 -50 25 -50 24 0 25 -2 25 -75 l0 -75 75 0 75 0
0 125 0 125 -100 0 -100 0 0 -50z m150 -75 c0 -73 -1 -75 -25 -75 -23 0 -25 3
-25 50 0 47 -2 50 -25 50 -20 0 -25 5 -25 25 0 23 3 25 50 25 l50 0 0 -75z"/>
</g>
</svg>
